<svg width="35" height="15" viewBox="0 0 35 15" fill="none" xmlns="http://www.w3.org/2000/svg">
<g clip-path="url(#clip0_885_2484)">
<path fill-rule="evenodd" clip-rule="evenodd" d="M2.64233 0.197189H4.28532V14.8963H2.64233V0.197189Z" fill="#231F20"/>
<path fill-rule="evenodd" clip-rule="evenodd" d="M4.80273 0.197189H5.31072V14.8963H4.80273V0.197189Z" fill="#231F20"/>
<path fill-rule="evenodd" clip-rule="evenodd" d="M5.75513 0.197189H6.66619V14.8963H5.75513V0.197189Z" fill="#231F20"/>
<path fill-rule="evenodd" clip-rule="evenodd" d="M7.54419 0.197189H8.05217V14.8963H7.54419V0.197189Z" fill="#231F20"/>
<path fill-rule="evenodd" clip-rule="evenodd" d="M8.27368 0.197189H8.66616V14.8963H8.27368V0.197189Z" fill="#231F20"/>
<path fill-rule="evenodd" clip-rule="evenodd" d="M1.39429 0.197189H1.90345V14.8963H1.39429V0.197189Z" fill="#231F20"/>
<path fill-rule="evenodd" clip-rule="evenodd" d="M0.272217 0.197189H1.18328V14.8963H0.272217V0.197189Z" fill="#231F20"/>
<path fill-rule="evenodd" clip-rule="evenodd" d="M11.3853 0.197189H13.0282V14.8963H11.3853V0.197189Z" fill="#231F20"/>
<path fill-rule="evenodd" clip-rule="evenodd" d="M13.5457 0.197189H14.0536V14.8963H13.5457V0.197189Z" fill="#231F20"/>
<path fill-rule="evenodd" clip-rule="evenodd" d="M14.498 0.197189H15.4091V14.8963H14.498V0.197189Z" fill="#231F20"/>
<path fill-rule="evenodd" clip-rule="evenodd" d="M16.2871 0.197189H16.7951V14.8963H16.2871V0.197189Z" fill="#231F20"/>
<path fill-rule="evenodd" clip-rule="evenodd" d="M17.0168 0.197189H17.4093V14.8963H17.0168V0.197189Z" fill="#231F20"/>
<path fill-rule="evenodd" clip-rule="evenodd" d="M10.1372 0.197189H10.6464V14.8963H10.1372V0.197189Z" fill="#231F20"/>
<path fill-rule="evenodd" clip-rule="evenodd" d="M9.01514 0.197189H9.9262V14.8963H9.01514V0.197189Z" fill="#231F20"/>
<path fill-rule="evenodd" clip-rule="evenodd" d="M18.054 0.197189H18.965V14.8963H18.054V0.197189Z" fill="#231F20"/>
<path fill-rule="evenodd" clip-rule="evenodd" d="M19.843 0.197189H20.3522V14.8963H19.843V0.197189Z" fill="#231F20"/>
<path fill-rule="evenodd" clip-rule="evenodd" d="M20.5737 0.197189H20.965V14.8963H20.5737V0.197189Z" fill="#231F20"/>
<path fill-rule="evenodd" clip-rule="evenodd" d="M22.436 0.197189H22.9452V14.8963H22.436V0.197189Z" fill="#231F20"/>
<path fill-rule="evenodd" clip-rule="evenodd" d="M21.314 0.197189H22.225V14.8963H21.314V0.197189Z" fill="#231F20"/>
<path fill-rule="evenodd" clip-rule="evenodd" d="M23.6216 0.197189H24.1307V14.8963H23.6216V0.197189Z" fill="#231F20"/>
<path fill-rule="evenodd" clip-rule="evenodd" d="M24.3523 0.197189H24.7448V14.8963H24.3523V0.197189Z" fill="#231F20"/>
<path fill-rule="evenodd" clip-rule="evenodd" d="M26.2158 0.197189H26.7238V14.8963H26.2158V0.197189Z" fill="#231F20"/>
<path fill-rule="evenodd" clip-rule="evenodd" d="M25.0925 0.197189H26.0036V14.8963H25.0925V0.197189Z" fill="#231F20"/>
<path fill-rule="evenodd" clip-rule="evenodd" d="M27.1682 0.197189H28.81V14.8963H27.1682V0.197189Z" fill="#231F20"/>
<path fill-rule="evenodd" clip-rule="evenodd" d="M29.3274 0.197189H29.8366V14.8963H29.3274V0.197189Z" fill="#231F20"/>
<path fill-rule="evenodd" clip-rule="evenodd" d="M30.2795 0.197189H31.1906V14.8963H30.2795V0.197189Z" fill="#231F20"/>
<path fill-rule="evenodd" clip-rule="evenodd" d="M32.0688 0.197189H32.578V14.8963H32.0688V0.197189Z" fill="#231F20"/>
<path fill-rule="evenodd" clip-rule="evenodd" d="M32.7983 0.197189H33.1908V14.8963H32.7983V0.197189Z" fill="#231F20"/>
<path fill-rule="evenodd" clip-rule="evenodd" d="M33.8367 0.197189H34.7466V14.8963H33.8367V0.197189Z" fill="#231F20"/>
<path fill-rule="evenodd" clip-rule="evenodd" d="M2.12964 14.9301H33.6044V6.69208H2.12964V14.9301Z" fill="white"/>
<path d="M2.72266 14.6146V7.15971H5.64797C6.24434 7.15971 6.72168 7.2352 7.08233 7.38619C7.44181 7.53718 7.72232 7.76931 7.92622 8.08368C8.1313 8.39581 8.23266 8.72371 8.23266 9.06738C8.23266 9.38402 8.1419 9.68487 7.96276 9.96545C7.78243 10.2471 7.51017 10.4736 7.14598 10.6472C7.61742 10.779 7.98044 11.0055 8.23266 11.3244C8.48724 11.6421 8.61335 12.0185 8.61335 12.4523C8.61335 12.8027 8.53556 13.1273 8.38116 13.427C8.22794 13.7278 8.03701 13.9577 7.80954 14.1211C7.58324 14.2822 7.29802 14.4062 6.9574 14.4896C6.61443 14.5729 6.19484 14.6146 5.69747 14.6146H2.72266ZM3.75748 10.2933H5.44289C5.90019 10.2933 6.22902 10.264 6.42703 10.2066C6.68986 10.1322 6.88786 10.0071 7.02105 9.83361C7.15305 9.66008 7.22023 9.44374 7.22023 9.18119C7.22023 8.93329 7.15894 8.71469 7.03283 8.52764C6.91026 8.33834 6.73229 8.20763 6.50128 8.1389C6.27145 8.06904 5.87544 8.03411 5.31678 8.03411H3.75748V10.2933ZM3.75748 13.7391H5.69982C6.03337 13.7391 6.26791 13.7278 6.40345 13.7031C6.63918 13.6636 6.83954 13.596 6.99865 13.5002C7.15894 13.4044 7.28859 13.2659 7.39231 13.0833C7.49603 12.9019 7.54671 12.6912 7.54671 12.4534C7.54671 12.1751 7.47245 11.9328 7.32159 11.7266C7.17309 11.5204 6.96565 11.3762 6.70164 11.2928C6.43763 11.2094 6.05694 11.1677 5.56193 11.1677H3.75748V13.7391Z" fill="#231F20"/>
<path d="M9.55029 11.9126C9.55029 10.9153 9.84023 10.1762 10.4236 9.69501C10.9081 9.29612 11.5009 9.09668 12.1998 9.09668C12.9753 9.09668 13.6106 9.33894 14.1033 9.82572C14.5959 10.3091 14.8423 10.9807 14.8423 11.8359C14.8423 12.53 14.7338 13.0754 14.5158 13.4721C14.2977 13.8698 13.9807 14.1786 13.5635 14.3994C13.1474 14.6191 12.6925 14.7284 12.1998 14.7284C11.409 14.7284 10.7702 14.4873 10.2822 14.0028C9.79427 13.5194 9.55029 12.8219 9.55029 11.9126ZM10.5309 11.9137C10.5309 12.6044 10.6888 13.1216 11.0035 13.4642C11.3217 13.8067 11.7189 13.9791 12.1998 13.9791C12.676 13.9791 13.0708 13.8067 13.389 13.4619C13.7049 13.1171 13.8628 12.5909 13.8628 11.8844C13.8628 11.2184 13.7025 10.7136 13.3855 10.3722C13.0673 10.0285 12.6724 9.85614 12.1998 9.85614C11.7189 9.85614 11.3217 10.0263 11.0035 10.3688C10.6888 10.7103 10.5309 11.2252 10.5309 11.9137Z" fill="#231F20"/>
<path d="M15.9441 14.6146V7.15971H16.9023V14.6146H15.9441Z" fill="#231F20"/>
<path d="M22.2404 12.8647L23.2305 12.9898C23.0761 13.5397 22.7885 13.969 22.3665 14.2721C21.9458 14.5763 21.4083 14.7284 20.753 14.7284C19.9292 14.7284 19.2762 14.4862 18.793 13.9994C18.311 13.516 18.0693 12.8343 18.0693 11.9576C18.0693 11.0517 18.3121 10.3474 18.8013 9.84826C19.2892 9.34683 19.9221 9.09668 20.7012 9.09668C21.4543 9.09668 22.0695 9.3412 22.5469 9.83248C23.0242 10.3226 23.2635 11.0134 23.2635 11.9035C23.2635 11.9576 23.2611 12.0388 23.2576 12.1469H19.0499C19.0853 12.7385 19.2597 13.1926 19.5756 13.507C19.8891 13.8214 20.2839 13.9791 20.753 13.9791C21.1043 13.9791 21.4036 13.8901 21.65 13.7132C21.8986 13.5363 22.0943 13.2535 22.2404 12.8647ZM19.1042 11.3976H22.251C22.2086 10.9424 22.0872 10.6021 21.8892 10.3756C21.5863 10.0229 21.1903 9.846 20.7059 9.846C20.2674 9.846 19.8985 9.98685 19.5992 10.2674C19.3022 10.5491 19.136 10.9255 19.1042 11.3976Z" fill="#231F20"/>
<path d="M26.521 13.7966L26.6518 14.6056C26.3831 14.6597 26.1415 14.6868 25.9317 14.6868C25.584 14.6868 25.3165 14.6349 25.1232 14.529C24.9334 14.4231 24.7991 14.2856 24.7201 14.1143C24.6423 13.9431 24.6046 13.5814 24.6046 13.0315V9.91925H23.8962V9.21049H24.6046V7.87523L25.5628 7.32535V9.21049H26.521V9.91925H25.5628V13.0833C25.5628 13.3459 25.5793 13.5137 25.6135 13.5881C25.6465 13.6636 25.7007 13.7222 25.7773 13.7673C25.8527 13.8101 25.9623 13.8338 26.1038 13.8338C26.2087 13.8338 26.3489 13.8214 26.521 13.7966Z" fill="#231F20"/>
<path d="M27.1067 11.9126C27.1067 10.9153 27.3978 10.1762 27.98 9.69501C28.4644 9.29612 29.0585 9.09668 29.7562 9.09668C30.5317 9.09668 31.167 9.33894 31.6608 9.82572C32.1523 10.3091 32.3998 10.9807 32.3998 11.8359C32.3998 12.53 32.2902 13.0754 32.0722 13.4721C31.8541 13.8698 31.5371 14.1786 31.1199 14.3994C30.7038 14.6191 30.2489 14.7284 29.7562 14.7284C28.9654 14.7284 28.3266 14.4873 27.8386 14.0028C27.3507 13.5194 27.1067 12.8219 27.1067 11.9126ZM28.0873 11.9137C28.0873 12.6044 28.2452 13.1216 28.5611 13.4642C28.8781 13.8067 29.2765 13.9791 29.7562 13.9791C30.2324 13.9791 30.6284 13.8067 30.9454 13.4619C31.2613 13.1171 31.4192 12.5909 31.4192 11.8844C31.4192 11.2184 31.2601 10.7136 30.9419 10.3722C30.6237 10.0285 30.2288 9.85614 29.7562 9.85614C29.2765 9.85614 28.8781 10.0263 28.5611 10.3688C28.2452 10.7103 28.0873 11.2252 28.0873 11.9137Z" fill="#231F20"/>
</g>
<defs>
<clipPath id="clip0_885_2484">
<rect width="35" height="15" fill="white"/>
</clipPath>
</defs>
</svg>
